<svg id="Capa_1" enable-background="new 0 0 511.999 511.999" height="512" viewBox="0 0 511.999 511.999" width="512" xmlns="http://www.w3.org/2000/svg" xmlns:xlink="http://www.w3.org/1999/xlink"><linearGradient id="SVGID_1_" gradientUnits="userSpaceOnUse" x1="256" x2="256" y1="511.999" y2="0"><stop offset="0" stop-color="#00b59c"/><stop offset="1" stop-color="#9cffac"/></linearGradient><path d="m224.333 179.999c33.084 0 60-26.916 60-60-3.017-79.489-116.995-79.467-120 .001 0 33.083 26.916 59.999 60 59.999zm0-90c16.542 0 30 13.458 30 30-1.508 39.744-58.498 39.734-60 0 0-16.542 13.458-30 30-30zm0 180c-33.084 0-60 26.916-60 60 3.017 79.489 116.995 79.467 120-.001 0-33.083-26.916-59.999-60-59.999zm0 90c-16.542 0-30-13.458-30-30 1.508-39.744 58.498-39.734 60 0 0 16.542-13.458 30-30 30zm-105-195c-33.084 0-60 26.916-60 60 3.017 79.489 116.995 79.467 120-.001 0-33.083-26.916-59.999-60-59.999zm0 90c-16.542 0-30-13.458-30-30 1.508-39.744 58.498-39.734 60 0 0 16.542-13.458 30-30 30zm270-30c0-33.084-26.916-60-60-60-79.489 3.017-79.467 116.995.001 120 33.083 0 59.999-26.916 59.999-60zm-60 30c-16.542 0-30-13.458-30-30 1.508-39.744 58.498-39.734 60 0 0 16.542-13.458 30-30 30zm167 227h-31c-8.822 0-16-7.178-16-16 0-25.364-20.636-46-46-46h-66.683c196.609-113.667 118.33-418.663-112.321-419.999-298.125 11.025-298.058 439.012.004 449.999h179c8.822 0 16 7.178 16 16 0 25.364 20.636 46 46 46h31c19.881-.738 19.866-29.269 0-30zm-467-257c0-107.523 87.477-195 195-195 258.339 9.803 258.268 380.236-.002 390-107.521 0-194.998-87.476-194.998-195zm195-15c8.284 0 15 6.716 15 15-.735 19.876-29.268 19.87-30 0 0-8.284 6.716-15 15-15z" fill="url(#SVGID_1_)"/></svg>